<?xml version="1.0" standalone="no"?>
<!DOCTYPE svg PUBLIC "-//W3C//DTD SVG 20010904//EN"
 "http://www.w3.org/TR/2001/REC-SVG-20010904/DTD/svg10.dtd">
<svg version="1.0" xmlns="http://www.w3.org/2000/svg"
 width="404.000000pt" height="404.000000pt" viewBox="0 0 404.000000 404.000000"
 preserveAspectRatio="xMidYMid meet">
<metadata>
Created by potrace 1.11, written by Peter Selinger 2001-2013
</metadata>
<g transform="translate(0.000000,404.000000) scale(0.100000,-0.100000)"
fill="#000000" stroke="none">
<path d="M0 2020 l0 -2020 2020 0 2020 0 0 2020 0 2020 -2020 0 -2020 0 0
-2020z m3788 -3 l2 -1767 -1767 2 -1768 3 -3 1755 c-1 965 0 1761 3 1768 3 10
362 12 1767 10 l1763 -3 3 -1768z"/>
<path d="M760 3405 l0 -125 -125 0 -125 0 0 -885 0 -885 250 0 250 0 0 -125 0
-125 125 0 125 0 0 -250 0 -250 -60 0 -60 0 0 60 0 60 -65 0 -65 0 0 65 0 65
-65 0 -65 0 0 65 0 65 -60 0 -60 0 0 60 0 60 -65 0 -65 0 0 65 0 65 -60 0 -60
0 0 -445 0 -445 628 2 627 3 3 568 2 567 -29 0 c-30 0 -30 1 -33 63 l-3 62
-62 3 -63 3 0 59 0 60 -65 0 -65 0 0 65 0 65 -60 0 -59 0 -3 63 -3 62 -157 3
-158 3 0 439 0 440 1010 0 1010 0 0 -440 0 -440 -155 0 -155 0 0 -65 0 -65
-65 0 -65 0 0 -65 0 -65 -65 0 -65 0 0 -60 0 -60 -60 0 -60 0 0 -65 0 -65 -35
0 -35 0 2 -567 3 -568 630 0 630 0 0 440 0 440 -62 3 -63 3 0 -66 0 -65 -65 0
-65 0 0 -60 0 -60 -60 0 -60 0 0 -65 0 -65 -65 0 -65 0 0 -65 0 -65 -65 0 -65
0 0 -60 0 -60 -60 0 -60 0 0 250 0 250 125 0 125 0 0 125 0 125 253 2 252 3 3
882 2 882 -127 3 -128 3 -3 123 -3 122 -1259 0 -1260 0 0 -125z"/>
</g>
</svg>
